<svg width="117" height="41" viewBox="0 0 117 41" fill="none" xmlns="http://www.w3.org/2000/svg">
<rect width="117" height="41" rx="20.5" fill="#F4F7FE"/>
<path d="M44.016 26V18.244L42.406 18.622V17.25L44.772 16.2H45.878V26H44.016ZM46.7422 27.624L47.5402 24.138H49.2762L47.9182 27.624H46.7422ZM53.8044 26.168C53.1231 26.168 52.5491 26.0373 52.0824 25.776C51.6157 25.5053 51.2517 25.1553 50.9904 24.726C50.7291 24.2967 50.5751 23.8347 50.5284 23.34H52.1944C52.2691 23.7693 52.4464 24.1007 52.7264 24.334C53.0157 24.5673 53.3797 24.684 53.8184 24.684C54.4437 24.684 54.9477 24.3993 55.3304 23.83C55.7131 23.2513 55.9184 22.374 55.9464 21.198C55.7224 21.5807 55.3817 21.898 54.9244 22.15C54.4764 22.402 53.9817 22.528 53.4404 22.528C52.8991 22.528 52.3904 22.3973 51.9144 22.136C51.4384 21.8747 51.0511 21.506 50.7524 21.03C50.4537 20.554 50.3044 19.994 50.3044 19.35C50.3044 18.762 50.4491 18.216 50.7384 17.712C51.0277 17.208 51.4291 16.802 51.9424 16.494C52.4557 16.186 53.0577 16.032 53.7484 16.032C54.4857 16.032 55.1064 16.1673 55.6104 16.438C56.1144 16.7087 56.5157 17.0727 56.8144 17.53C57.1224 17.9873 57.3417 18.496 57.4724 19.056C57.6124 19.616 57.6824 20.19 57.6824 20.778C57.6824 21.87 57.5284 22.822 57.2204 23.634C56.9217 24.4367 56.4784 25.062 55.8904 25.51C55.3117 25.9487 54.6164 26.168 53.8044 26.168ZM53.8604 21.016C54.2057 21.016 54.5184 20.9413 54.7984 20.792C55.0784 20.6333 55.2977 20.428 55.4564 20.176C55.6151 19.9147 55.6944 19.6253 55.6944 19.308C55.6944 18.804 55.5171 18.3887 55.1624 18.062C54.8171 17.7353 54.3784 17.572 53.8464 17.572C53.3237 17.572 52.8897 17.7353 52.5444 18.062C52.1991 18.3793 52.0264 18.7853 52.0264 19.28C52.0264 19.8027 52.1991 20.2227 52.5444 20.54C52.8897 20.8573 53.3284 21.016 53.8604 21.016ZM58.6904 26V24.698C59.2877 24.2033 59.8664 23.7133 60.4264 23.228C60.9957 22.7427 61.4997 22.262 61.9384 21.786C62.3864 21.31 62.7411 20.848 63.0024 20.4C63.2731 19.9427 63.4084 19.4993 63.4084 19.07C63.4084 18.6687 63.2964 18.314 63.0724 18.006C62.8577 17.698 62.4984 17.544 61.9944 17.544C61.4811 17.544 61.0937 17.712 60.8324 18.048C60.5711 18.384 60.4404 18.79 60.4404 19.266H58.7044C58.7231 18.5473 58.8817 17.95 59.1804 17.474C59.4791 16.9887 59.8757 16.6293 60.3704 16.396C60.8651 16.1533 61.4204 16.032 62.0364 16.032C63.0351 16.032 63.8097 16.3073 64.3604 16.858C64.9204 17.3993 65.2004 18.104 65.2004 18.972C65.2004 19.5133 65.0744 20.0407 64.8224 20.554C64.5797 21.0673 64.2577 21.562 63.8564 22.038C63.4551 22.514 63.0211 22.962 62.5544 23.382C62.0877 23.7927 61.6351 24.1753 61.1964 24.53H65.4384V26H58.6904ZM71.0034 26V24.18H66.1734V22.752L70.7654 16.2H72.7954V22.626H74.0834V24.18H72.7954V26H71.0034ZM68.0914 22.626H71.1154V18.174L68.0914 22.626ZM78.2681 26V16.2H84.6661V17.642H80.0601V20.33H84.2461V21.73H80.0601V24.558H84.6661V26H78.2681ZM88.3638 26V17.642H85.5078V16.2H93.0258V17.642H90.1558V26H88.3638ZM94.0733 26V16.2H95.8653V20.274H100.261V16.2H102.053V26H100.261V21.73H95.8653V26H94.0733Z" fill="#2B3674"/>
<circle cx="20.5" cy="20.5" r="14.5" fill="white"/>
<path d="M20.466 24.4825L16 21.945L20.4654 28L24.9351 21.945L20.4642 24.4825H20.466ZM20.534 14L16.0667 21.1301L20.5334 23.6699L25 21.1324L20.534 14Z" fill="#2B3674"/>
</svg>
