<svg width="28" height="28" viewBox="0 0 28 28" fill="none" xmlns="http://www.w3.org/2000/svg">
<g clip-path="url(#clip0_201_2906)">
<path d="M7.46683 10.7333H7.70016C8.5985 10.7333 9.3335 11.4683 9.3335 12.3667V20.5333C9.3335 21.4317 8.5985 22.1667 7.70016 22.1667H7.46683C6.5685 22.1667 5.8335 21.4317 5.8335 20.5333V12.3667C5.8335 11.4683 6.5685 10.7333 7.46683 10.7333ZM14.0002 5.83334C14.8985 5.83334 15.6335 6.56834 15.6335 7.46668V20.5333C15.6335 21.4317 14.8985 22.1667 14.0002 22.1667C13.1018 22.1667 12.3668 21.4317 12.3668 20.5333V7.46668C12.3668 6.56834 13.1018 5.83334 14.0002 5.83334ZM20.5335 15.1667C21.4318 15.1667 22.1668 15.9017 22.1668 16.8V20.5333C22.1668 21.4317 21.4318 22.1667 20.5335 22.1667C19.6352 22.1667 18.9002 21.4317 18.9002 20.5333V16.8C18.9002 15.9017 19.6352 15.1667 20.5335 15.1667Z" fill="#A3AED0"/>
</g>
<defs>
<clipPath id="clip0_201_2906">
<rect width="28" height="28" fill="white"/>
</clipPath>
</defs>
</svg>
