<svg width="56" height="56" viewBox="0 0 56 56" fill="none" xmlns="http://www.w3.org/2000/svg">
<circle cx="28" cy="28" r="28" fill="url(#paint0_linear_201_1824)"/>
<g clip-path="url(#clip0_201_1824)">
<path d="M39.6663 20.0434L26.3547 33.3667L21.408 28.42L23.053 26.775L26.3547 30.0767L38.0213 18.41L39.6663 20.0434ZM27.9997 37.3334C22.8547 37.3334 18.6663 33.145 18.6663 28C18.6663 22.855 22.8547 18.6667 27.9997 18.6667C29.8313 18.6667 31.5463 19.2034 32.993 20.125L34.6847 18.4334C32.783 17.115 30.4847 16.3334 27.9997 16.3334C21.5597 16.3334 16.333 21.56 16.333 28C16.333 34.44 21.5597 39.6667 27.9997 39.6667C30.018 39.6667 31.9197 39.1534 33.5763 38.2434L31.8263 36.4934C30.6597 37.03 29.3647 37.3334 27.9997 37.3334ZM36.1663 31.5H32.6663V33.8334H36.1663V37.3334H38.4997V33.8334H41.9997V31.5H38.4997V28H36.1663V31.5Z" fill="white"/>
</g>
<defs>
<linearGradient id="paint0_linear_201_1824" x1="0" y1="28" x2="56" y2="28" gradientUnits="userSpaceOnUse">
<stop stop-color="#4481EB"/>
<stop offset="1" stop-color="#04BEFE"/>
</linearGradient>
<clipPath id="clip0_201_1824">
<rect width="28" height="28" fill="white" transform="translate(14 14)"/>
</clipPath>
</defs>
</svg>
