<svg width="181" height="26" viewBox="0 0 181 26" fill="none" xmlns="http://www.w3.org/2000/svg">
<path d="M17.42 3.748V22H12.974V14.486H6.058V22H1.612V3.748H6.058V10.898H12.974V3.748H17.42ZM29.2616 22.182C27.5456 22.182 25.9682 21.7833 24.5296 20.986C23.1082 20.1887 21.9729 19.0793 21.1236 17.658C20.2916 16.2193 19.8756 14.6073 19.8756 12.822C19.8756 11.0367 20.2916 9.43333 21.1236 8.012C21.9729 6.59067 23.1082 5.48133 24.5296 4.684C25.9682 3.88667 27.5456 3.488 29.2616 3.488C30.9776 3.488 32.5462 3.88667 33.9676 4.684C35.4062 5.48133 36.5329 6.59067 37.3476 8.012C38.1796 9.43333 38.5956 11.0367 38.5956 12.822C38.5956 14.6073 38.1796 16.2193 37.3476 17.658C36.5156 19.0793 35.3889 20.1887 33.9676 20.986C32.5462 21.7833 30.9776 22.182 29.2616 22.182ZM29.2616 18.126C30.7176 18.126 31.8789 17.6407 32.7456 16.67C33.6296 15.6993 34.0716 14.4167 34.0716 12.822C34.0716 11.21 33.6296 9.92733 32.7456 8.974C31.8789 8.00333 30.7176 7.518 29.2616 7.518C27.7882 7.518 26.6096 7.99467 25.7256 8.948C24.8589 9.90133 24.4256 11.1927 24.4256 12.822C24.4256 14.434 24.8589 15.7253 25.7256 16.696C26.6096 17.6493 27.7882 18.126 29.2616 18.126ZM50.377 22L46.581 15.11H45.515V22H41.069V3.748H48.531C49.9697 3.748 51.1917 3.99933 52.197 4.502C53.2197 5.00467 53.9824 5.698 54.485 6.582C54.9877 7.44867 55.239 8.41933 55.239 9.494C55.239 10.7073 54.8924 11.7907 54.199 12.744C53.523 13.6973 52.5177 14.3733 51.183 14.772L55.395 22H50.377ZM45.515 11.964H48.271C49.0857 11.964 49.6924 11.7647 50.091 11.366C50.507 10.9673 50.715 10.404 50.715 9.676C50.715 8.98267 50.507 8.43667 50.091 8.038C49.6924 7.63933 49.0857 7.44 48.271 7.44H45.515V11.964ZM62.476 3.748V22H58.03V3.748H62.476ZM70.4299 18.36H78.2819V22H65.3859V18.62L73.1859 7.388H65.3859V3.748H78.2819V7.128L70.4299 18.36ZM89.8182 22.182C88.1022 22.182 86.5249 21.7833 85.0862 20.986C83.6649 20.1887 82.5296 19.0793 81.6802 17.658C80.8482 16.2193 80.4322 14.6073 80.4322 12.822C80.4322 11.0367 80.8482 9.43333 81.6802 8.012C82.5296 6.59067 83.6649 5.48133 85.0862 4.684C86.5249 3.88667 88.1022 3.488 89.8182 3.488C91.5342 3.488 93.1029 3.88667 94.5242 4.684C95.9629 5.48133 97.0896 6.59067 97.9042 8.012C98.7362 9.43333 99.1522 11.0367 99.1522 12.822C99.1522 14.6073 98.7362 16.2193 97.9042 17.658C97.0722 19.0793 95.9456 20.1887 94.5242 20.986C93.1029 21.7833 91.5342 22.182 89.8182 22.182ZM89.8182 18.126C91.2742 18.126 92.4356 17.6407 93.3022 16.67C94.1862 15.6993 94.6282 14.4167 94.6282 12.822C94.6282 11.21 94.1862 9.92733 93.3022 8.974C92.4356 8.00333 91.2742 7.518 89.8182 7.518C88.3449 7.518 87.1662 7.99467 86.2822 8.948C85.4156 9.90133 84.9822 11.1927 84.9822 12.822C84.9822 14.434 85.4156 15.7253 86.2822 16.696C87.1662 17.6493 88.3449 18.126 89.8182 18.126ZM117.954 22H113.508L106.072 10.742V22H101.626V3.748H106.072L113.508 15.058V3.748H117.954V22ZM137.32 3.878V5.802H129.442V11.912H135.838V13.836H129.442V22H127.076V3.878H137.32ZM149.72 22L145.404 14.59H142.544V22H140.178V3.878H146.028C147.397 3.878 148.55 4.112 149.486 4.58C150.439 5.048 151.15 5.68067 151.618 6.478C152.086 7.27533 152.32 8.18533 152.32 9.208C152.32 10.456 151.956 11.5567 151.228 12.51C150.517 13.4633 149.442 14.096 148.004 14.408L152.554 22H149.72ZM142.544 12.692H146.028C147.31 12.692 148.272 12.38 148.914 11.756C149.555 11.1147 149.876 10.2653 149.876 9.208C149.876 8.13333 149.555 7.30133 148.914 6.712C148.29 6.12267 147.328 5.828 146.028 5.828H142.544V12.692ZM158.362 5.802V11.86H164.966V13.81H158.362V20.05H165.746V22H155.996V3.852H165.746V5.802H158.362ZM171.692 5.802V11.86H178.296V13.81H171.692V20.05H179.076V22H169.326V3.852H179.076V5.802H171.692Z" fill="#2B3674"/>
</svg>
